# xmcd
#
# Track frame offsets:
# 150
# 21135
# 40410
# 60569
# 79629
# 102425
# 130512
# 149681
# 165510
# 190555
# 205775
# 230401
# 248834
#
# Disc length: 3660 seconds
#
# Revision: 1
# Processed by: cddbd v1.5.2PL0 Copyright (c) Steve Scherf et al.
# Submitted via: CedeCatalogueitor 2.6.0.6 http://personales.ya.com/cdcatalogueitor
#
DISCID=a60e4a0d
DTITLE=Bernard Allison - Chills and Thrills
DYEAR=2008
DGENRE=
TTITLE0=Chills and Thrills
TTITLE1=Boogie Man
TTITLE2=So Devine
TTITLE3=When I'm Gone
TTITLE4=Missing Tyrone
TTITLE5=Just My Guitar And Me
TTITLE6=Compromising For Your Needs
TTITLE7=Black and White
TTITLE8=Serious
TTITLE9=Heart Of St. Paul
TTITLE10=That's Why I'm Cryin'
TTITLE11=Groove With Me
TTITLE12=Serious (After Hours)
EXTD=
EXTT0=
EXTT1=
EXTT2=
EXTT3=
EXTT4=
EXTT5=
EXTT6=
EXTT7=
EXTT8=
EXTT9=
EXTT10=
EXTT11=
EXTT12=
PLAYORDER=
